<svg width="53" height="20" viewBox="0 0 53 20" fill="none" xmlns="http://www.w3.org/2000/svg">
<rect width="53" height="20" fill="#1E1E1E"/>
<g id="Frame 1000003705">
<rect width="1440" height="5295" transform="translate(-1306.5 -1739)" fill="#0A0A0F"/>
<g id="Frame 1000003712">
<mask id="path-1-inside-1_1537_188" fill="white">
<path d="M-1306.5 -169H133.5V107H-1306.5V-169Z"/>
</mask>
<path d="M-1306.5 -169V-168H133.5V-169V-170H-1306.5V-169ZM133.5 107V106H-1306.5V107V108H133.5V107Z" fill="#1F1D27" mask="url(#path-1-inside-1_1537_188)"/>
<g id="Frame 1000003713">
<mask id="path-3-inside-2_1537_188" fill="white">
<path d="M-1226.5 -168H53.5V106H-1226.5V-168Z"/>
</mask>
<path d="M53.5 -168H52.5V106H53.5H54.5V-168H53.5ZM-1226.5 106H-1225.5V-168H-1226.5H-1227.5V106H-1226.5Z" fill="#DDCCFF" fill-opacity="0.1" mask="url(#path-3-inside-2_1537_188)"/>
<g id="Frame 1000003698" clip-path="url(#clip0_1537_188)">
<g id="Honda" clip-path="url(#clip1_1537_188)">
<g id="Clip path group">
<mask id="mask0_1537_188" style="mask-type:luminance" maskUnits="userSpaceOnUse" x="0" y="0" width="157" height="20">
<g id="clip0_18_1252">
<path id="Vector" d="M157 0H0V20H157V0Z" fill="white"/>
</g>
</mask>
<g mask="url(#mask0_1537_188)">
<g id="Group">
<path id="Vector_2" d="M0.523438 18.855H14.6698V16.4973L12.2455 16.2215C11.6886 16.1519 11.1342 15.8066 11.1342 14.6241V11.7856H22.0233V14.4886C22.0233 15.2819 21.8841 16.047 20.9486 16.1519L18.4852 16.4314V18.855H32.6341V16.4314L30.1365 16.1519C29.6528 16.0848 29.0971 15.7016 29.0971 14.6961V5.51309C29.0971 4.5771 29.4428 3.95351 30.1707 3.88517L32.6341 3.60815V1.21753H18.4852V3.57399L20.9486 3.88517C21.7803 3.9889 22.0233 4.64788 22.0233 5.51309V8.25028H11.1342V5.47892C11.1342 4.4392 11.5506 3.95351 12.2785 3.88517L14.6698 3.60815V1.21753H0.556413V3.60815L2.91598 3.88517C3.85394 3.9889 4.09454 4.68205 4.06034 5.58387V14.5216C4.06034 15.5271 3.7831 16.119 2.88178 16.2215L0.523438 16.4973V18.855Z" fill="#A3A3AC"/>
<path id="Vector_3" d="M47.7537 3.91791C43.7332 3.91791 41.4432 5.40915 41.4432 9.98172C41.4432 14.6239 43.7332 16.1188 47.7537 16.1188C51.7767 16.1188 54.0667 14.6239 54.0667 9.98172C54.0667 5.40915 51.7767 3.91791 47.7537 3.91791ZM33.3301 9.94754C33.3301 4.40482 37.8038 0.522949 47.7891 0.522949C57.7086 0.522949 62.1821 4.40482 62.1821 9.94754C62.1821 15.6307 57.7086 19.4771 47.7891 19.4771C37.8038 19.4771 33.3301 15.6307 33.3301 9.94754Z" fill="#A3A3AC"/>
</g>
</g>
</g>
</g>
</g>
</g>
</g>
</g>
<defs>
<clipPath id="clip0_1537_188">
<rect width="1278" height="32" fill="white" transform="translate(-1225.5 -6)"/>
</clipPath>
<clipPath id="clip1_1537_188">
<rect width="157" height="20" fill="white"/>
</clipPath>
</defs>
</svg>
