<svg width="18" height="18" viewBox="0 0 18 18" fill="none" xmlns="http://www.w3.org/2000/svg">
<g clip-path="url(#clip0_1_758)">
<path d="M8.99999 17.6399C13.7717 17.6399 17.64 13.7716 17.64 8.99986C17.64 4.22812 13.7717 0.359863 8.99999 0.359863C4.22825 0.359863 0.359985 4.22812 0.359985 8.99986C0.359985 13.7716 4.22825 17.6399 8.99999 17.6399Z" stroke="white" stroke-miterlimit="10" stroke-linecap="round"/>
<path d="M9.00005 17.6399C11.3859 17.6399 13.3201 13.7716 13.3201 8.99986C13.3201 4.22812 11.3859 0.359863 9.00005 0.359863C6.61418 0.359863 4.68005 4.22812 4.68005 8.99986C4.68005 13.7716 6.61418 17.6399 9.00005 17.6399Z" stroke="white" stroke-miterlimit="10" stroke-linecap="round"/>
<path d="M2.29138 14.5576C3.87574 13.5824 6.29242 12.96 8.99998 12.96C11.6705 12.96 14.0576 13.5655 15.6423 14.517" stroke="white" stroke-miterlimit="10"/>
<path d="M15.7086 3.44287C14.1243 4.41775 11.7076 5.04019 9.00003 5.04019C6.32991 5.04019 3.94239 4.43467 2.35767 3.48319" stroke="white" stroke-miterlimit="10"/>
<path d="M0.359985 9H17.64" stroke="white" stroke-miterlimit="10"/>
<path d="M9 0.359863V17.6399" stroke="white" stroke-miterlimit="10"/>
</g>
<defs>
<clipPath id="clip0_1_758">
<rect width="18" height="18" fill="white"/>
</clipPath>
</defs>
</svg>
